<mxfile host="app.diagrams.net" modified="2023-11-10T10:21:03.075Z" agent="Mozilla/5.0 (Macintosh; Intel Mac OS X 10_15_7) AppleWebKit/605.1.15 (KHTML, like Gecko) Version/17.0 Safari/605.1.15" etag="-kgrIRW8uYjIZaqBhSRH" version="22.1.0" type="device">
  <diagram name="Сторінка-1" id="M65snTpICcBQ8d4_dOx6">
    <mxGraphModel dx="838" dy="537" grid="1" gridSize="10" guides="1" tooltips="1" connect="1" arrows="1" fold="1" page="1" pageScale="1" pageWidth="827" pageHeight="1169" math="0" shadow="0">
      <root>
        <mxCell id="0" />
        <mxCell id="1" parent="0" />
        <mxCell id="7XPjCnud-Z_3TGGtZ2kZ-3" value="" style="edgeStyle=orthogonalEdgeStyle;rounded=0;orthogonalLoop=1;jettySize=auto;html=1;" edge="1" parent="1" source="7XPjCnud-Z_3TGGtZ2kZ-1" target="7XPjCnud-Z_3TGGtZ2kZ-2">
          <mxGeometry relative="1" as="geometry" />
        </mxCell>
        <mxCell id="7XPjCnud-Z_3TGGtZ2kZ-1" value="&lt;font style=&quot;font-size: 20px;&quot;&gt;Start&lt;/font&gt;" style="strokeWidth=2;html=1;shape=mxgraph.flowchart.start_1;whiteSpace=wrap;" vertex="1" parent="1">
          <mxGeometry x="350" y="90" width="100" height="60" as="geometry" />
        </mxCell>
        <mxCell id="7XPjCnud-Z_3TGGtZ2kZ-6" value="" style="edgeStyle=orthogonalEdgeStyle;rounded=0;orthogonalLoop=1;jettySize=auto;html=1;" edge="1" parent="1" source="7XPjCnud-Z_3TGGtZ2kZ-2" target="7XPjCnud-Z_3TGGtZ2kZ-5">
          <mxGeometry relative="1" as="geometry" />
        </mxCell>
        <mxCell id="7XPjCnud-Z_3TGGtZ2kZ-2" value="a, a[0]" style="rounded=1;whiteSpace=wrap;html=1;absoluteArcSize=1;arcSize=14;strokeWidth=2;" vertex="1" parent="1">
          <mxGeometry x="350" y="170" width="100" height="40" as="geometry" />
        </mxCell>
        <mxCell id="7XPjCnud-Z_3TGGtZ2kZ-10" value="" style="edgeStyle=orthogonalEdgeStyle;rounded=0;orthogonalLoop=1;jettySize=auto;html=1;" edge="1" parent="1" source="7XPjCnud-Z_3TGGtZ2kZ-5" target="7XPjCnud-Z_3TGGtZ2kZ-9">
          <mxGeometry relative="1" as="geometry" />
        </mxCell>
        <mxCell id="7XPjCnud-Z_3TGGtZ2kZ-5" value="for i = 0, i &amp;lt; 6, i++" style="shape=hexagon;perimeter=hexagonPerimeter2;whiteSpace=wrap;html=1;fixedSize=1;" vertex="1" parent="1">
          <mxGeometry x="340" y="230" width="120" height="50" as="geometry" />
        </mxCell>
        <mxCell id="7XPjCnud-Z_3TGGtZ2kZ-12" value="" style="edgeStyle=orthogonalEdgeStyle;rounded=0;orthogonalLoop=1;jettySize=auto;html=1;" edge="1" parent="1" source="7XPjCnud-Z_3TGGtZ2kZ-9" target="7XPjCnud-Z_3TGGtZ2kZ-11">
          <mxGeometry relative="1" as="geometry" />
        </mxCell>
        <mxCell id="7XPjCnud-Z_3TGGtZ2kZ-9" value="input a[ i ]" style="shape=parallelogram;html=1;strokeWidth=2;perimeter=parallelogramPerimeter;whiteSpace=wrap;rounded=1;arcSize=12;size=0.23;" vertex="1" parent="1">
          <mxGeometry x="350" y="300" width="100" height="40" as="geometry" />
        </mxCell>
        <mxCell id="7XPjCnud-Z_3TGGtZ2kZ-14" value="" style="edgeStyle=orthogonalEdgeStyle;rounded=0;orthogonalLoop=1;jettySize=auto;html=1;" edge="1" parent="1" source="7XPjCnud-Z_3TGGtZ2kZ-11" target="7XPjCnud-Z_3TGGtZ2kZ-13">
          <mxGeometry relative="1" as="geometry" />
        </mxCell>
        <mxCell id="7XPjCnud-Z_3TGGtZ2kZ-15" value="True" style="edgeLabel;html=1;align=center;verticalAlign=middle;resizable=0;points=[];" vertex="1" connectable="0" parent="7XPjCnud-Z_3TGGtZ2kZ-14">
          <mxGeometry x="-0.0769" y="-3" relative="1" as="geometry">
            <mxPoint x="-3" y="-13" as="offset" />
          </mxGeometry>
        </mxCell>
        <mxCell id="7XPjCnud-Z_3TGGtZ2kZ-21" value="" style="edgeStyle=orthogonalEdgeStyle;rounded=0;orthogonalLoop=1;jettySize=auto;html=1;" edge="1" parent="1" source="7XPjCnud-Z_3TGGtZ2kZ-11" target="7XPjCnud-Z_3TGGtZ2kZ-20">
          <mxGeometry relative="1" as="geometry" />
        </mxCell>
        <mxCell id="7XPjCnud-Z_3TGGtZ2kZ-11" value="if a[ i ] &amp;lt;= 0&amp;nbsp;" style="strokeWidth=2;html=1;shape=mxgraph.flowchart.decision;whiteSpace=wrap;" vertex="1" parent="1">
          <mxGeometry x="350" y="360" width="100" height="80" as="geometry" />
        </mxCell>
        <mxCell id="7XPjCnud-Z_3TGGtZ2kZ-19" value="" style="edgeStyle=orthogonalEdgeStyle;rounded=0;orthogonalLoop=1;jettySize=auto;html=1;" edge="1" parent="1" source="7XPjCnud-Z_3TGGtZ2kZ-13" target="7XPjCnud-Z_3TGGtZ2kZ-16">
          <mxGeometry relative="1" as="geometry" />
        </mxCell>
        <mxCell id="7XPjCnud-Z_3TGGtZ2kZ-13" value="&quot;ERROR&quot;" style="shape=parallelogram;html=1;strokeWidth=2;perimeter=parallelogramPerimeter;whiteSpace=wrap;rounded=1;arcSize=12;size=0.23;" vertex="1" parent="1">
          <mxGeometry x="490" y="380" width="100" height="40" as="geometry" />
        </mxCell>
        <mxCell id="7XPjCnud-Z_3TGGtZ2kZ-16" value="&lt;font style=&quot;font-size: 20px;&quot;&gt;End&lt;/font&gt;" style="strokeWidth=2;html=1;shape=mxgraph.flowchart.start_1;whiteSpace=wrap;" vertex="1" parent="1">
          <mxGeometry x="620" y="370" width="100" height="60" as="geometry" />
        </mxCell>
        <mxCell id="7XPjCnud-Z_3TGGtZ2kZ-25" value="True" style="edgeStyle=orthogonalEdgeStyle;rounded=0;orthogonalLoop=1;jettySize=auto;html=1;" edge="1" parent="1" source="7XPjCnud-Z_3TGGtZ2kZ-20" target="7XPjCnud-Z_3TGGtZ2kZ-23">
          <mxGeometry x="-0.2233" y="10" relative="1" as="geometry">
            <mxPoint as="offset" />
          </mxGeometry>
        </mxCell>
        <mxCell id="7XPjCnud-Z_3TGGtZ2kZ-20" value="if a[ i ] &amp;gt; a[ i-1 ]&amp;nbsp;" style="strokeWidth=2;html=1;shape=mxgraph.flowchart.decision;whiteSpace=wrap;" vertex="1" parent="1">
          <mxGeometry x="350" y="460" width="100" height="80" as="geometry" />
        </mxCell>
        <mxCell id="7XPjCnud-Z_3TGGtZ2kZ-22" value="" style="edgeStyle=orthogonalEdgeStyle;rounded=0;orthogonalLoop=1;jettySize=auto;html=1;" edge="1" parent="1" source="7XPjCnud-Z_3TGGtZ2kZ-23" target="7XPjCnud-Z_3TGGtZ2kZ-24">
          <mxGeometry relative="1" as="geometry" />
        </mxCell>
        <mxCell id="7XPjCnud-Z_3TGGtZ2kZ-23" value="&quot;LOSS&quot;" style="shape=parallelogram;html=1;strokeWidth=2;perimeter=parallelogramPerimeter;whiteSpace=wrap;rounded=1;arcSize=12;size=0.23;" vertex="1" parent="1">
          <mxGeometry x="490" y="480" width="100" height="40" as="geometry" />
        </mxCell>
        <mxCell id="7XPjCnud-Z_3TGGtZ2kZ-24" value="&lt;font style=&quot;font-size: 20px;&quot;&gt;End&lt;/font&gt;" style="strokeWidth=2;html=1;shape=mxgraph.flowchart.start_1;whiteSpace=wrap;" vertex="1" parent="1">
          <mxGeometry x="620" y="470" width="100" height="60" as="geometry" />
        </mxCell>
        <mxCell id="7XPjCnud-Z_3TGGtZ2kZ-29" value="" style="endArrow=classic;html=1;rounded=0;exitX=0.5;exitY=1;exitDx=0;exitDy=0;exitPerimeter=0;entryX=1;entryY=0.5;entryDx=0;entryDy=0;" edge="1" parent="1" source="7XPjCnud-Z_3TGGtZ2kZ-20" target="7XPjCnud-Z_3TGGtZ2kZ-5">
          <mxGeometry width="50" height="50" relative="1" as="geometry">
            <mxPoint x="330" y="370" as="sourcePoint" />
            <mxPoint x="380" y="320" as="targetPoint" />
            <Array as="points">
              <mxPoint x="400" y="560" />
              <mxPoint x="740" y="560" />
              <mxPoint x="740" y="255" />
            </Array>
          </mxGeometry>
        </mxCell>
        <mxCell id="7XPjCnud-Z_3TGGtZ2kZ-32" value="" style="edgeStyle=orthogonalEdgeStyle;rounded=0;orthogonalLoop=1;jettySize=auto;html=1;" edge="1" parent="1" source="7XPjCnud-Z_3TGGtZ2kZ-30" target="7XPjCnud-Z_3TGGtZ2kZ-31">
          <mxGeometry relative="1" as="geometry" />
        </mxCell>
        <mxCell id="7XPjCnud-Z_3TGGtZ2kZ-30" value="&quot;WIN&quot;" style="shape=parallelogram;html=1;strokeWidth=2;perimeter=parallelogramPerimeter;whiteSpace=wrap;rounded=1;arcSize=12;size=0.23;" vertex="1" parent="1">
          <mxGeometry x="350" y="580" width="100" height="40" as="geometry" />
        </mxCell>
        <mxCell id="7XPjCnud-Z_3TGGtZ2kZ-31" value="&lt;font style=&quot;font-size: 20px;&quot;&gt;End&lt;/font&gt;" style="strokeWidth=2;html=1;shape=mxgraph.flowchart.start_1;whiteSpace=wrap;" vertex="1" parent="1">
          <mxGeometry x="350" y="640" width="100" height="60" as="geometry" />
        </mxCell>
        <mxCell id="7XPjCnud-Z_3TGGtZ2kZ-33" value="" style="endArrow=classic;html=1;rounded=0;exitX=0;exitY=0.5;exitDx=0;exitDy=0;entryX=0;entryY=0.5;entryDx=0;entryDy=0;" edge="1" parent="1" source="7XPjCnud-Z_3TGGtZ2kZ-5" target="7XPjCnud-Z_3TGGtZ2kZ-30">
          <mxGeometry width="50" height="50" relative="1" as="geometry">
            <mxPoint x="330" y="300" as="sourcePoint" />
            <mxPoint x="380" y="430" as="targetPoint" />
            <Array as="points">
              <mxPoint x="300" y="255" />
              <mxPoint x="300" y="600" />
            </Array>
          </mxGeometry>
        </mxCell>
      </root>
    </mxGraphModel>
  </diagram>
</mxfile>
